<svg xmlns="http://www.w3.org/2000/svg" viewBox="0 0 512 512" role="img" aria-labelledby="title desc"><title id="title">Shadow Group emblem</title><desc id="desc">Skull in tactical helmet with night vision goggles and bat wings</desc><defs><linearGradient id="g" x1="0" y1="0" x2="1" y2="1"><stop stop-color="#c8c5a2"/><stop offset="1" stop-color="#817d5b"/></linearGradient><filter id="rough"><feTurbulence baseFrequency=".8" numOctaves="2" seed="7" type="fractalNoise" result="n"/><feComposite in="n" in2="SourceGraphic" operator="in" result="t"/><feBlend in="SourceGraphic" in2="t" mode="multiply"/></filter></defs><circle cx="256" cy="256" r="225" fill="none" stroke="#4b394e" stroke-width="14"/><path d="M85 213 28 166l73 16 70-75-23 107-62 46 72 7-74 34-52-23 55-10-63-37zM427 213l57-47-73 16-70-75 23 107 62 46-72 7 74 34 52-23-55-10 63-37z" fill="#1e1723" stroke="#4b394e" stroke-width="8"/><path d="M172 184q84-67 168 0l-8 62-26 17-100 0-26-17z" fill="#747252" stroke="#111217" stroke-width="8"/><path d="M190 175v-24q0-18 18-18h30l11 12h14l11-12h30q18 0 18 18v24" fill="none" stroke="#4b394e" stroke-width="10"/><g fill="none" stroke="#111217" stroke-width="10"><circle cx="220" cy="171" r="29"/><circle cx="292" cy="171" r="29"/><path d="M249 171h14"/></g><path d="M184 246q12-22 31-22h82q19 0 31 22l8 76q3 31-22 52l-38 34q-20 18-40 0l-38-34q-25-21-22-52z" fill="url(#g)" stroke="#111217" stroke-width="8" filter="url(#rough)"/><path d="M198 277q19-22 46-8l-5 47q-29 16-48-7zm116 0q-19-22-46-8l5 47q29 16 48-7z" fill="#111217"/><path d="m256 303-15 35 15 9 15-9z" fill="#111217"/><path d="M211 348q45 25 90 0l-5 43q-40 32-80 0z" fill="#111217"/><path d="M224 355v34m16-29v38m16-36v40m16-42v38m16-43v34" stroke="#c8c5a2" stroke-width="6"/><path d="M104 78q152-69 304 0" fill="none" stroke="#4b394e" stroke-width="12"/><text x="256" y="89" text-anchor="middle" fill="#85815f" font-family="Impact,Arial Narrow,sans-serif" font-size="41" letter-spacing="4">SHADOW GROUP</text><path d="M100 427q156 67 312 0" fill="none" stroke="#4b394e" stroke-width="14"/><text x="256" y="453" text-anchor="middle" fill="#85815f" font-family="Georgia,serif" font-size="25" letter-spacing="2">EX UMBRIS MORS</text></svg>